# xmcd
#
# Track frame offsets:
#       150
#       15408
#       26173
#       40848
#       59218
#       72700
#       86790
#       103438
#       120358
#       133503
#
# Disc length: 2003 seconds
#
# Revision: 5
# Processed by: cddbd v1.5.2PL0 Copyright (c) Steve Scherf et al.
# Submitted via: FreeDbEdit v0.1
#
DISCID=9207d10a
DTITLE=The O'Jays - The O'Jays Greatest Hits
DYEAR=1989
DGENRE=R&B
TTITLE0=Use Ta Be My Girl
TTITLE1=992 Arguments
TTITLE2=Give the People What They Want
TTITLE3=Put Your Hands Together
TTITLE4=Love Train
TTITLE5=Back Stabbers
TTITLE6=Livin' for the Weekend
TTITLE7=For the Love of Money
TTITLE8=Time to Get Down
TTITLE9=Forever Mine
EXTD=YEAR: 1989
EXTT0=
EXTT1=
EXTT2=
EXTT3=
EXTT4=
EXTT5=
EXTT6=
EXTT7=
EXTT8=
EXTT9=
PLAYORDER=
